<svg xmlns="http://www.w3.org/2000/svg" viewBox="0 0 30 30" width="30" height="30"><circle cx="15" cy="15" r="12.4" fill="#ffffff" stroke="#ffffff" stroke-width="4"/><circle cx="15" cy="15" r="12.4" fill="#ffffff" stroke="#5f7482" stroke-width="1.6"/><line x1="15" y1="3.60" x2="15" y2="7.00" stroke="#5f7482" stroke-width="2" stroke-linecap="round" transform="rotate(0 15 15)"/><line x1="15" y1="4.00" x2="15" y2="5.80" stroke="#90a4ae" stroke-width="1.2" stroke-linecap="round" transform="rotate(30 15 15)"/><line x1="15" y1="4.00" x2="15" y2="5.80" stroke="#90a4ae" stroke-width="1.2" stroke-linecap="round" transform="rotate(60 15 15)"/><line x1="15" y1="4.00" x2="15" y2="5.80" stroke="#90a4ae" stroke-width="1.2" stroke-linecap="round" transform="rotate(90 15 15)"/><line x1="15" y1="4.00" x2="15" y2="5.80" stroke="#90a4ae" stroke-width="1.2" stroke-linecap="round" transform="rotate(120 15 15)"/><line x1="15" y1="4.00" x2="15" y2="5.80" stroke="#90a4ae" stroke-width="1.2" stroke-linecap="round" transform="rotate(150 15 15)"/><line x1="15" y1="3.60" x2="15" y2="7.00" stroke="#5f7482" stroke-width="2" stroke-linecap="round" transform="rotate(180 15 15)"/><line x1="15" y1="4.00" x2="15" y2="5.80" stroke="#90a4ae" stroke-width="1.2" stroke-linecap="round" transform="rotate(210 15 15)"/><line x1="15" y1="4.00" x2="15" y2="5.80" stroke="#90a4ae" stroke-width="1.2" stroke-linecap="round" transform="rotate(240 15 15)"/><line x1="15" y1="4.00" x2="15" y2="5.80" stroke="#90a4ae" stroke-width="1.2" stroke-linecap="round" transform="rotate(270 15 15)"/><line x1="15" y1="4.00" x2="15" y2="5.80" stroke="#90a4ae" stroke-width="1.2" stroke-linecap="round" transform="rotate(300 15 15)"/><line x1="15" y1="4.00" x2="15" y2="5.80" stroke="#90a4ae" stroke-width="1.2" stroke-linecap="round" transform="rotate(330 15 15)"/><rect x="10.50" y="11.60" width="9.00" height="2.20" rx="1.10" fill="#5f7482"/><rect x="10.50" y="16.40" width="9.00" height="2.20" rx="1.10" fill="#5f7482"/></svg>
