<svg xmlns="http://www.w3.org/2000/svg" viewBox="0 0 30 30" width="30" height="30"><defs><clipPath id="staff-rising-12"><rect x="12.20" y="10.00" width="5.60" height="16.20" rx="1.2"/></clipPath></defs><rect x="10.60" y="8.40" width="8.80" height="19.40" rx="2.4" fill="#ffffff" stroke="#ffffff" stroke-width="3.6"/><rect x="10.60" y="8.40" width="8.80" height="19.40" rx="2.4" fill="#ffffff" stroke="#0b69c7" stroke-width="1.9"/><g clip-path="url(#staff-rising-12)"><rect x="12.20" y="16.48" width="5.60" height="10.22" fill="#0b69c7" fill-opacity="0.5"/><rect x="12.20" y="15.68" width="5.60" height="1.6" fill="#0b69c7"/></g><rect x="12.20" y="21.65" width="2.80" height="1" fill="#90a4ae" fill-opacity="0.75"/><rect x="12.20" y="17.60" width="4.20" height="1" fill="#90a4ae" fill-opacity="0.75"/><rect x="12.20" y="13.55" width="2.80" height="1" fill="#90a4ae" fill-opacity="0.75"/><g><path d="M15.00 1.20 L19.70 4.83 L16.80 4.83 L16.80 7.80 L13.20 7.80 L13.20 4.83 L10.30 4.83 Z" fill="none" stroke="#ffffff" stroke-width="2.4" stroke-linejoin="round"/><path d="M15.00 1.20 L19.70 4.83 L16.80 4.83 L16.80 7.80 L13.20 7.80 L13.20 4.83 L10.30 4.83 Z" fill="#0b69c7"/></g></svg>
